<svg>
    <symbol width="36" height="32" viewBox="0 0 36 32" fill="none" xmlns="http://www.w3.org/2000/svg" id="burger-icon">
        <rect width="36" height="3" fill="currentColor"/>
    </symbol>
    <symbol width="13" height="13" viewBox="0 0 13 13" fill="none" xmlns="http://www.w3.org/2000/svg" id="enter-icon">
        <path d="M5.12056 9.09278L6.13889 10.1111L9.75 6.5L6.13889 2.88889L5.12056 3.90722L6.98389 5.77778H0V7.22222H6.98389L5.12056 9.09278ZM11.5556 0H1.44444C0.642778 0 0 0.65 0 1.44444V4.33333H1.44444V1.44444H11.5556V11.5556H1.44444V8.66667H0V11.5556C0 12.35 0.642778 13 1.44444 13H11.5556C12.35 13 13 12.35 13 11.5556V1.44444C13 0.65 12.35 0 11.5556 0Z" fill="currentColor"/>
    </symbol>
    <symbol width="23" height="22" viewBox="0 0 23 22" fill="none" xmlns="http://www.w3.org/2000/svg" id="search-icon">
        <rect width="6.8678" height="1.71695" transform="matrix(-0.718931 0.695081 0.718931 0.695081 4.9375 15.6534)" fill="currentColor"/>
        <path fill-rule="evenodd" clip-rule="evenodd" d="M12.0969 18C7.53041 18 3.99692 14.3229 3.99692 10C3.99692 5.67715 7.53041 2 12.0969 2C16.6634 2 20.1969 5.67715 20.1969 10C20.1969 14.3229 16.6634 18 12.0969 18ZM12.0969 20C6.57408 20 2.09692 15.5228 2.09692 10C2.09692 4.47715 6.57408 0 12.0969 0C17.6198 0 22.0969 4.47715 22.0969 10C22.0969 15.5228 17.6198 20 12.0969 20Z" fill="currentColor"/>
    </symbol>
    <symbol width="13" height="12" viewBox="0 0 13 12" fill="none" xmlns="http://www.w3.org/2000/svg" id="close-icon">
        <path fill-rule="evenodd" clip-rule="evenodd" d="M0.501981 11.4789L11.502 0.000216305L12.002 0.521973L1.00198 12.0006L0.501981 11.4789Z" fill="currentColor"/>
        <path fill-rule="evenodd" clip-rule="evenodd" d="M0.500026 9.03416e-05L11.5 11.4787L11 12.0005L2.74963e-05 0.521847L0.500026 9.03416e-05Z" fill="currentColor"/>
    </symbol>
</svg>